<?xml version="1.0" encoding="UTF-8"?>
<svg width="15px" height="12px" viewBox="0 0 15 12" version="1.1" xmlns="http://www.w3.org/2000/svg" xmlns:xlink="http://www.w3.org/1999/xlink">
    <title>F1EC9D2F-8CB4-4BA8-BF7C-1436F8350F25@1.5x</title>
    <g id="HTML" stroke="none" stroke-width="1" fill="none" fill-rule="evenodd">
        <g id="1.2-Signals-popup" transform="translate(-995.000000, -406.000000)" fill="#6D7278" fill-rule="nonzero">
            <g id="Group-4-Copy-7" transform="translate(131.000000, 114.000000)">
                <g id="Group-4-Copy-15" transform="translate(657.000000, 34.000000)">
                    <g id="Group-4-Copy-5" transform="translate(207.000000, 257.000000)">
                        <g id="Leverage" transform="translate(0.000000, 1.000000)">
                            <path d="M9.37404983,11.1481035 L5.20589498,11.1481035 C4.84270931,11.1481035 4.53520043,11.4325697 4.53520043,11.7959893 L4.53520043,11.9865302 L10.0448613,11.9865302 L10.0448613,11.7959893 C10.0448613,11.4325697 9.73723548,11.1481035 9.37404983,11.1481035 L9.37404983,11.1481035 Z" id="Path"></path>
                            <path d="M8.41584794,9.80063212 L6.16409688,9.80063212 C5.8009112,9.80063212 5.49340232,10.0850983 5.49340232,10.4485179 L5.49340232,10.6690026 L9.08665942,10.6690026 L9.08665942,10.4485179 C9.08665942,10.0850983 8.77903358,9.80063212 8.41584794,9.80063212 L8.41584794,9.80063212 Z" id="Path"></path>
                            <path d="M14.3796956,7.56911655 L12.6350008,3.83187183 L13.4851243,4.0758671 C13.6121515,4.11177625 13.7443254,4.03832035 13.7807024,3.91141007 C13.8170795,3.78461675 13.7440914,3.65220897 13.6172981,3.61536404 L8.53784554,2.15782575 C8.54076974,2.1217996 8.54287518,2.0856565 8.54287518,2.04892853 C8.54299214,1.46981996 8.1461197,0.966155717 7.58315271,0.830823743 C7.02006872,0.695374779 6.43756806,0.963699396 6.17450702,1.47964524 L1.09493748,0.0221069454 C0.968495077,-0.0123985935 0.837841824,0.0611742738 0.801698718,0.187148807 C0.765672542,0.313123341 0.837373952,0.444712338 0.962880613,0.482610001 L2.02342952,0.786960734 L0.183639752,4.72784674 C0.0760291879,4.75369666 -1.61534064e-07,4.84984438 -1.61534064e-07,4.96049609 C-0.000350905511,5.9084048 0.571037783,6.76297306 1.44712815,7.12487205 C2.32321852,7.48677107 3.33113181,7.28465036 3.99995484,6.6129031 C4.44548599,6.17848395 4.6973181,5.58288284 4.69848776,4.96049609 C4.6983708,4.84352809 4.61368597,4.74363743 4.49823854,4.72445468 L2.7583395,0.997854054 L6.0422162,1.94003131 C6.03917505,1.97605748 6.0371866,2.01220059 6.0371866,2.04892853 C6.03800535,2.64815562 6.46236527,3.16316575 7.0504804,3.27849619 L7.0504804,9.53113784 L7.52958135,9.53113784 L7.52958135,3.27849619 C7.90727102,3.2042215 8.22998576,2.96081109 8.40543776,2.61821181 L11.9086295,3.62343483 L10.0650968,7.57250861 C9.95748621,7.59835853 9.88157398,7.69450625 9.88145702,7.80515796 C9.88110611,8.75306667 10.4524948,9.60763493 11.3285852,9.96953392 C12.2046755,10.3314329 13.2125888,10.1293122 13.8814119,9.45756497 C14.326943,9.02314582 14.5787751,8.42754471 14.5799448,7.80515796 C14.5799448,7.68818996 14.495143,7.5882993 14.3796956,7.56911655 Z M3.96790562,4.71018457 L0.715493276,4.71018457 L2.34169945,1.22711134 L3.96790562,4.71018457 Z M10.5969503,7.55484643 L12.2231565,4.07177321 L13.8493626,7.55484643 L10.5969503,7.55484643 Z" id="Shape"></path>
                        </g>
                    </g>
                </g>
            </g>
        </g>
    </g>
</svg>