<?xml version="1.0" encoding="UTF-8"?>
<svg width="14px" height="12px" viewBox="0 0 14 12" version="1.1" xmlns="http://www.w3.org/2000/svg" xmlns:xlink="http://www.w3.org/1999/xlink">
    <title>9190C27C-9EC7-445A-B2B1-E10375F13DC3@1.5x</title>
    <g id="HTML" stroke="none" stroke-width="1" fill="none" fill-rule="evenodd">
        <g id="1.2-Signals-popup" transform="translate(-997.000000, -466.000000)" fill="#6D7278" fill-rule="nonzero">
            <g id="Group-4-Copy-7" transform="translate(131.000000, 114.000000)">
                <g id="Group-4-Copy-15" transform="translate(657.000000, 34.000000)">
                    <g id="Group-4-Copy-6" transform="translate(209.000000, 317.000000)">
                        <g id="calendar-page-on-day-10" transform="translate(0.000000, 1.000000)">
                            <path d="M4.88905263,9.13136842 L5.39210526,9.13136842 C5.66968421,9.13136842 5.89484211,8.82757895 5.89484211,8.45273684 L5.89484211,4.72578947 L4.992,4.72578947 L4.45294737,5.55631579 L4.88936842,5.55631579 L4.88936842,9.13136842 L4.88905263,9.13136842 L4.88905263,9.13136842 Z" id="Path"></path>
                            <path d="M7.95631579,9.21631579 C9.30126316,9.21631579 9.61642105,7.98 9.61642105,6.91357895 C9.61642105,5.84715789 9.30126316,4.61084211 7.95631579,4.61084211 C6.61073684,4.61084211 6.29589474,5.84715789 6.29589474,6.91357895 C6.29589474,7.98 6.61073684,9.21631579 7.95631579,9.21631579 Z M7.95631579,5.514 C8.38010526,5.514 8.58663158,5.91378947 8.58663158,6.91357895 C8.58663158,7.91336842 8.38010526,8.42873684 7.95631579,8.42873684 C7.53221053,8.42873684 7.326,7.91336842 7.326,6.91357895 C7.326,5.91347368 7.53221053,5.514 7.95631579,5.514 Z" id="Shape"></path>
                            <path d="M13.686,11.0703158 L13.686,0.0423157895 L12.534,0.0423157895 C12.534,0.965368421 11.7852632,1.71410526 10.8622105,1.71410526 C9.93915789,1.71410526 9.19042105,0.965368421 9.19042105,0.0423157895 L4.49557895,0.0423157895 C4.49557895,0.965368421 3.74684211,1.71410526 2.82378947,1.71410526 C1.90073684,1.71410526 1.152,0.965368421 1.152,0.0423157895 L0.678631579,0.0423157895 C0.303789474,0.0423157895 0,0.346105263 0,0.720947368 L0,11.7489474 L13.0073684,11.7489474 C13.3818947,11.7489474 13.686,11.4451579 13.686,11.0703158 Z M12.5336842,9.71305263 C12.5336842,10.0875789 12.2298947,10.3916842 11.8550526,10.3916842 L1.152,10.3916842 L1.152,4.11410526 C1.152,3.73926316 1.45578947,3.43547368 1.83063158,3.43547368 L12.5336842,3.43547368 C12.5336842,3.43547368 12.5336842,9.71305263 12.5336842,9.71305263 Z" id="Shape"></path>
                        </g>
                    </g>
                </g>
            </g>
        </g>
    </g>
</svg>