<?xml version="1.0" encoding="UTF-8"?>
<svg width="13px" height="18px" viewBox="0 0 13 18" version="1.1" xmlns="http://www.w3.org/2000/svg" xmlns:xlink="http://www.w3.org/1999/xlink">
    <title>89352C59-53F2-45FA-8107-C7F72425FD5A@1.5x</title>
    <g id="Page-1" stroke="none" stroke-width="1" fill="none" fill-rule="evenodd">
        <g id="1.1-Price-Action---Trends-View" transform="translate(-304.000000, -153.000000)" fill="#FFFFFF" fill-rule="nonzero">
            <g id="Group-2-Copy" transform="translate(295.000000, 146.000000)">
                <path d="M9.16154409,9.54906306 C9.05512558,9.31261477 9,9.05513844 9,8.7945353 C9,7.80344082 9.78031183,7 10.7428752,7 L20.2567545,7 C20.5322569,7 20.8038349,7.0672478 21.0492119,7.19622731 C21.9065218,7.64686206 22.2467135,8.72776057 21.8090513,9.61048169 L18.112881,17.0652908 C18.1045299,17.0821341 18.1001757,17.1007759 18.1001757,17.1196872 L18.1001757,21.2234815 C18.1001757,21.7214434 17.8992218,22.1970164 17.5453733,22.5364641 L15.479306,24.5184473 C15.1566993,24.8279246 14.7321599,25 14.2912332,25 C13.3286698,25 12.5483579,24.1965592 12.5483579,23.2054647 L12.5483579,17.1005026 C12.5483579,17.0889202 11.41942,14.5717737 9.16154409,9.54906306 Z M10.6374532,8.84483715 L14.0134974,16.3459748 C14.1199159,16.5824231 14.1750415,16.8398995 14.1750415,17.1005026 L14.1750415,23.2054647 C14.1750415,23.2715377 14.2270623,23.3251004 14.2912332,23.3251004 C14.3206283,23.3251004 14.3489309,23.3136287 14.370438,23.2929969 L16.4365053,21.3110137 C16.4600952,21.2883839 16.4734922,21.256679 16.4734922,21.2234815 L16.4734922,17.1196872 C16.4734922,16.8360187 16.5388041,16.5563909 16.6640706,16.3037408 L20.360241,8.84893172 C20.3894185,8.79008365 20.366739,8.71802375 20.309585,8.68798143 C20.2932265,8.6793828 20.2751214,8.67489961 20.2567545,8.67489961 L10.7428752,8.67489961 C10.6787044,8.67489961 10.6266836,8.72846233 10.6266836,8.7945353 C10.6266836,8.81190884 10.6303586,8.82907393 10.6374532,8.84483715 Z" id="Filter-Copy"></path>
            </g>
        </g>
    </g>
</svg>