<?xml version="1.0" encoding="UTF-8"?>
<svg width="12px" height="12px" viewBox="0 0 12 12" version="1.1" xmlns="http://www.w3.org/2000/svg" xmlns:xlink="http://www.w3.org/1999/xlink">
    <title>B3284068-842E-4746-964E-931195A7ECA5</title>
    <g id="HTML" stroke="none" stroke-width="1" fill="none" fill-rule="evenodd">
        <g id="1.2-Signals-popup" transform="translate(-814.000000, -239.000000)" fill="#6D7278" fill-rule="nonzero">
            <g id="Group-4-Copy-7" transform="translate(131.000000, 114.000000)">
                <g id="Group-4-Copy-15" transform="translate(657.000000, 34.000000)">
                    <g id="Group-5" transform="translate(26.000000, 91.000000)">
                        <g id="start-up">
                            <path d="M1.75177003,7.68933105 C1.68383789,7.8248291 1.71029663,7.98861694 1.81732177,8.09573365 L1.90328979,8.18170167 C2.15167238,7.88735963 2.44116211,7.56793214 2.79226685,7.21691895 C2.81707763,7.19210815 2.84262084,7.18011473 2.86752319,7.15722656 L2.31445313,6.60406495 C1.99291992,7.18560792 1.80541992,7.58294677 1.75177003,7.68933105 Z" id="Path"></path>
                            <path d="M4.78097534,9.20562745 C4.42904662,9.55755614 4.11044311,9.8475952 3.81774902,10.0961609 L3.9342041,10.212616 C4.04223633,10.3206482 4.20758058,10.3466492 4.34353638,10.2767029 C4.52563477,10.1828613 4.81201172,10.0480957 5.41992188,9.7095337 L4.84075927,9.13037109 C4.81787109,9.15536498 4.80587768,9.18081666 4.78097534,9.20562745 L4.78097534,9.20562745 Z" id="Path"></path>
                            <path d="M4.59356691,7.40478516 C4.33950806,7.15072631 3.62503052,7.37850952 3.28939819,7.71405028 C2.16659545,8.83685302 1.65948487,9.63290405 1.43179322,10.1029358 C1.36651612,10.2376099 1.39370728,10.3988342 1.49954224,10.5046692 C1.6055603,10.6107788 1.76705932,10.6376953 1.90182495,10.5724182 C2.36132812,10.3493042 3.14767455,9.84457397 4.283844,8.70849609 C4.65289308,8.33926392 4.83499146,7.64630128 4.59384155,7.40505982 L4.59356691,7.40478516 Z" id="Path"></path>
                            <path d="M1.09735106,4.68072511 L0.10299682,5.67507935 C-0.0094299375,5.78750611 -0.0325012266,5.96154785 0.0471496641,6.09942628 C0.12487793,6.23547363 0.287658703,6.30477905 0.442565906,6.26330566 C0.979980469,6.11920167 1.45285034,6.05831909 1.77127076,6.13998412 C2.22427369,5.33459473 2.71105957,4.59320067 3.22659302,3.91973878 C2.92840575,3.72857667 1.94302369,3.83505248 1.09735106,4.68072511 L1.09735106,4.68072511 Z" id="Path"></path>
                            <path d="M5.95065307,11.9622803 C6.08605957,12.0307617 6.25003052,12.004303 6.35723878,11.8970032 L7.35168457,10.9026489 C8.12155151,10.1325989 8.25704955,9.13906861 8.08236694,8.82403566 C7.3312683,9.3901062 6.57037355,9.86810302 5.86047363,10.26828 C5.90945435,10.5448608 5.87686158,10.8132019 5.76104738,11.5968933 C5.73843384,11.7485962 5.81680298,11.8953552 5.95065307,11.9622803 L5.95065307,11.9622803 Z" id="Path"></path>
                            <path d="M6.9797058,3.52661133 C6.56854247,3.93786621 6.56854247,4.60684205 6.9797058,5.01809693 C7.39096069,5.42935181 8.06002807,5.42935181 8.47128295,5.01809693 C8.88253784,4.60684205 8.88253784,3.93786621 8.47128295,3.52661133 C8.06002807,3.11535645 7.39096069,3.11535645 6.9797058,3.52661133 Z" id="Path"></path>
                            <path d="M11.9793091,0.342956531 C11.9666748,0.169097906 11.8282471,0.0316772344 11.6549378,0.0186767578 C10.7915039,-0.0463256719 9.93145753,0.0598755 9.08843995,0.317688 C9.15188599,0.896850586 9.45144654,1.52362059 9.9628601,2.03503418 C10.4804077,2.55249023 11.1242065,2.85195923 11.7137146,2.90798951 C11.9407654,2.11230469 12.0484314,1.26013184 11.9793091,0.342956531 L11.9793091,0.342956531 Z" id="Path"></path>
                            <path d="M9.46572877,2.53225709 C8.88070678,1.9472351 8.52346802,1.24557495 8.408844,0.562408453 C6.29772949,1.42822266 4.27679442,3.31896973 2.67984009,5.97509766 L3.47323608,6.76849364 C4.01531981,6.54840089 4.67340089,6.4902649 5.09078979,6.90756225 C5.50872802,7.32559205 5.44949341,7.98339844 5.22949219,8.52474975 L6.04898072,9.34423828 C8.09262084,8.11257935 10.4718933,6.17211914 11.4836426,3.59042358 C10.7838135,3.48468019 10.0602722,3.12680053 9.46572877,2.53225709 L9.46572877,2.53225709 Z M8.96841431,5.51531981 C8.28314208,6.20059205 7.16793823,6.20059205 6.48257447,5.51531981 C5.79721069,4.82995605 5.79721069,3.71466066 6.48257447,3.02938842 C7.16793823,2.34411621 8.28314208,2.34411621 8.96841431,3.02938842 C9.65377807,3.7147522 9.65377807,4.82995605 8.96841431,5.51531981 Z" id="Shape"></path>
                        </g>
                    </g>
                </g>
            </g>
        </g>
    </g>
</svg>