<?xml version="1.0" encoding="UTF-8"?>
<svg width="12px" height="12px" viewBox="0 0 12 12" version="1.1" xmlns="http://www.w3.org/2000/svg" xmlns:xlink="http://www.w3.org/1999/xlink">
    <title>B15282BD-01F3-44FD-9854-2EFA4C682694@1.5x</title>
    <g id="HTML" stroke="none" stroke-width="1" fill="none" fill-rule="evenodd">
        <g id="1.2-Signals-popup" transform="translate(-812.000000, -405.000000)" fill="#6D7278" fill-rule="nonzero">
            <g id="Group-4-Copy-7" transform="translate(131.000000, 114.000000)">
                <g id="Group-4-Copy-15" transform="translate(657.000000, 34.000000)">
                    <g id="Group-5-Copy-3" transform="translate(24.000000, 257.000000)">
                        <g id="Live-Pricing">
                            <path d="M6.15482537,3.29136074 C5.85745678,3.58808904 5.37550198,3.58808904 5.07813339,3.29136074 C4.78085629,2.99463245 4.78085629,2.51350087 5.07813339,2.21677258 C5.37550198,1.92004428 5.85745678,1.92004428 6.15482537,2.21677258 C6.45210247,2.51350087 6.45210247,2.99463245 6.15482537,3.29136074 Z" id="Path"></path>
                            <path d="M7.19483791,4.44269212 C7.10208746,4.44269212 7.00933701,4.40729329 6.93872224,4.33640413 C6.79749274,4.1949917 6.79776716,3.96585963 6.9391796,3.82472163 C7.22575474,3.5386953 7.38354028,3.15845499 7.38354028,2.75406665 C7.38354028,2.34967831 7.22575474,1.96943802 6.9391796,1.68341169 C6.79776716,1.5421822 6.79749274,1.31314161 6.93872224,1.1716377 C7.07986027,1.03022528 7.30899232,1.02995086 7.45040477,1.17118036 C7.87400179,1.59395414 8.10724998,2.15603658 8.10724998,2.75406665 C8.10724998,3.35200528 7.87400179,3.91417916 7.45040477,4.33695296 C7.37979002,4.40747622 7.28731396,4.44269212 7.19483791,4.44269212 Z" id="Path"></path>
                            <path d="M8.01331043,5.50804183 C7.92055995,5.50804183 7.82780948,5.47264301 7.75719476,5.40184531 C7.61596526,5.26034139 7.61623965,5.03130081 7.7576521,4.89007131 C8.32933885,4.31948221 8.64426965,3.56092246 8.64426965,2.75406665 C8.64426965,1.94721083 8.32933885,1.18865111 7.7576521,0.618061982 C7.61623965,0.476832485 7.61596526,0.247791902 7.75719476,0.10628799 C7.89842426,-0.0351244344 8.12746484,-0.0353988499 8.26887726,0.105830647 C8.9775859,0.813167232 9.36797936,1.75366056 9.36788791,2.75406665 C9.36788791,3.75447276 8.9775859,4.69505753 8.26887726,5.40239414 C8.19826251,5.47282593 8.10578646,5.50804183 8.01331043,5.50804183 Z" id="Path"></path>
                            <path d="M4.03629145,4.44269212 C3.9438154,4.44269212 3.85133934,4.40747622 3.78063313,4.33695296 C3.3570361,3.91417916 3.12378792,3.35200528 3.12378792,2.75406665 C3.12378792,2.15603658 3.3570361,1.59395414 3.78063313,1.17118036 C3.92204558,1.02995086 4.15117763,1.03013381 4.29231566,1.1716377 C4.43354515,1.31305015 4.43327074,1.5421822 4.29185829,1.68341169 C4.00528316,1.96943802 3.84749762,2.34967831 3.84749762,2.75406665 C3.84749762,3.15845499 4.00528316,3.5386953 4.29185829,3.82472163 C4.43327074,3.96585963 4.43354515,4.1949917 4.29231566,4.33640413 C4.22170089,4.40720183 4.12895044,4.44269212 4.03629145,4.44269212 Z" id="Path"></path>
                            <path d="M3.21781896,5.50804183 C3.12525144,5.50804183 3.03277538,5.47282593 2.96216063,5.40230265 C2.25345199,4.69496606 1.86315,3.75447276 1.86315,2.75406665 C1.86315,1.7535691 2.25345199,0.813075768 2.96216063,0.105739183 C3.10357306,-0.0353988499 3.33270513,-0.0352158984 3.47384314,0.10628799 C3.61507263,0.247700438 3.61479824,0.476741021 3.47338579,0.617970518 C2.90169905,1.18855962 2.58676824,1.94711937 2.58676824,2.75397518 C2.58676824,3.560831 2.90169905,4.31948221 3.47338579,4.89007131 C3.61479824,5.03130081 3.61507263,5.26034139 3.47384314,5.40184531 C3.40322841,5.47264301 3.31047794,5.50804183 3.21781896,5.50804183 Z" id="Path"></path>
                            <path d="M10.3846671,6.13360436 C10.8520782,6.13360436 11.2310379,6.51256408 11.2310379,6.97997516 L11.2310379,6.97997516 L11.2310379,11.142678 C11.2310379,11.6101805 10.8520782,11.9891403 10.3845756,11.9891403 L10.3845756,11.9891403 L0.846462293,11.9891403 C0.378959724,11.9891403 0,11.6101805 0,11.142678 L0,11.142678 L0,6.97997516 C0,6.51256408 0.378959724,6.13360436 0.846462293,6.13360436 L0.846462293,6.13360436 Z M6.94921875,8.36914062 C6.4453125,8.36914062 6.4453125,8.36914062 6.15527344,8.671875 C5.86523438,8.97460938 5.86523438,8.97460938 5.86523438,9.47460938 C5.86523438,9.96484375 5.86523438,9.96484375 6.14453125,10.2519531 C6.42382812,10.5390625 6.42382812,10.5390625 6.8515625,10.5390625 C7.2046875,10.5390625 7.2046875,10.5390625 7.4665625,10.4153125 L7.59179688,10.3457031 L7.4453125,10.0332031 C7.19140625,10.2265625 7.19140625,10.2265625 6.94140625,10.2265625 C6.61914062,10.2265625 6.61914062,10.2265625 6.4375,10.0341797 C6.25585938,9.84179688 6.25585938,9.84179688 6.25585938,9.47460938 C6.25585938,9.10546875 6.25585938,9.10546875 6.43359375,8.89355469 C6.61132812,8.68164062 6.61132812,8.68164062 6.9140625,8.68164062 C7.05273438,8.68164062 7.05273438,8.68164062 7.19628906,8.73242188 C7.29199219,8.76627604 7.29199219,8.76627604 7.34906684,8.80273438 L7.39648438,8.83984375 L7.58007812,8.578125 C7.49023438,8.50585938 7.49023438,8.50585938 7.30078125,8.4375 C7.11132812,8.36914062 7.11132812,8.36914062 6.94921875,8.36914062 Z M8.82617188,8.36914062 C8.44140625,8.36914062 8.44140625,8.36914062 8.16015625,8.6484375 C7.84570312,8.9609375 7.84570312,8.9609375 7.84570312,9.47851562 C7.84570312,9.9765625 7.84570312,9.9765625 8.15234375,10.2714844 C8.42773438,10.5390625 8.42773438,10.5390625 8.82226562,10.5390625 C9.09570312,10.5390625 9.09570312,10.5390625 9.31835938,10.4570312 C9.45166016,10.4101562 9.45166016,10.4101562 9.5333252,10.3500977 L9.58203125,10.3085938 L9.42578125,10.0410156 C9.21289062,10.2265625 9.21289062,10.2265625 8.89453125,10.2265625 C8.61523438,10.2265625 8.61523438,10.2265625 8.4375,10.0546875 C8.2765625,9.896875 8.2765625,9.896875 8.244375,9.6303125 L8.23632812,9.49023438 L9.74414062,9.49023438 C9.7734375,9.38671875 9.7734375,9.38671875 9.7734375,9.26367188 C9.7734375,8.86328125 9.7734375,8.86328125 9.52734375,8.62109375 C9.2734375,8.36914062 9.2734375,8.36914062 8.82617188,8.36914062 Z M1.828125,7.61914062 C1.74944196,7.61914062 1.74944196,7.61914062 1.41246811,7.63349011 L1.29296875,7.63867188 L1.29296875,10.5 L1.68359375,10.5 L1.68359375,9.3984375 C1.90625,9.41796875 1.90625,9.41796875 1.97265625,9.41796875 C3.07421875,9.41796875 3.07421875,9.41796875 3.07421875,8.453125 C3.07421875,7.61914062 3.07421875,7.61914062 1.828125,7.61914062 Z M4.31054688,8.36914062 C3.96735491,8.36914062 3.96735491,8.36914062 3.76909279,8.64321588 L3.70703125,8.7421875 L3.70703125,8.40820312 L3.3359375,8.40820312 L3.3359375,10.5 L3.70703125,10.5 L3.70703125,9.30078125 C3.70703125,9.04492188 3.70703125,9.04492188 3.85449219,8.86328125 C4.00195312,8.68164062 4.00195312,8.68164062 4.19921875,8.68164062 C4.28125,8.68164062 4.28125,8.68164062 4.36241319,8.71896701 L4.44335938,8.765625 L4.59765625,8.40429688 C4.41015625,8.36914062 4.41015625,8.36914062 4.31054688,8.36914062 Z M5.41210938,8.40820312 L4.75390625,8.40820312 L4.75390625,8.72070312 L5.04101562,8.72070312 L5.04101562,10.5 L5.41210938,10.5 L5.41210938,8.40820312 Z M8.84375,8.68164062 C9.109375,8.68164062 9.109375,8.68164062 9.26367188,8.84570312 C9.40429688,8.99609375 9.40429688,8.99609375 9.40429688,9.22070312 L8.24609375,9.22070312 C8.26757812,8.99414062 8.26757812,8.99414062 8.42773438,8.84179688 C8.59570312,8.68164062 8.59570312,8.68164062 8.84375,8.68164062 Z M1.89648438,7.97070312 C2.671875,7.97070312 2.671875,7.97070312 2.671875,8.49414062 C2.671875,9.06640625 2.671875,9.06640625 1.9453125,9.06640625 C1.934375,9.06640625 1.934375,9.06640625 1.7734375,9.05390625 L1.68359375,9.046875 L1.68359375,7.99023438 C1.81835938,7.97070312 1.81835938,7.97070312 1.89648438,7.97070312 Z M5.24414062,7.6171875 C5.1484375,7.6171875 5.1484375,7.6171875 5.08203125,7.68359375 C5.015625,7.75 5.015625,7.75 5.015625,7.84570312 C5.015625,7.94140625 5.015625,7.94140625 5.08300781,8.00878906 C5.15039062,8.07617188 5.15039062,8.07617188 5.24414062,8.07617188 C5.33984375,8.07617188 5.33984375,8.07617188 5.40722656,8.00878906 C5.47460938,7.94140625 5.47460938,7.94140625 5.47460938,7.84570312 C5.47460938,7.75195312 5.47460938,7.75195312 5.40722656,7.68457031 C5.33984375,7.6171875 5.33984375,7.6171875 5.24414062,7.6171875 Z" id="Shape"></path>
                        </g>
                    </g>
                </g>
            </g>
        </g>
    </g>
</svg>