<?xml version="1.0" encoding="UTF-8"?>
<svg width="12px" height="12px" viewBox="0 0 12 12" version="1.1" xmlns="http://www.w3.org/2000/svg" xmlns:xlink="http://www.w3.org/1999/xlink">
    <title>EF464D3B-7FEC-45A0-9A77-0CCA1189C246</title>
    <g id="HTML" stroke="none" stroke-width="1" fill="none" fill-rule="evenodd">
        <g id="2.-Price-Action" transform="translate(-322.000000, -130.000000)" fill="#979797" fill-rule="nonzero">
            <g id="Group-7-Copy-7" transform="translate(0.000000, 122.000000)">
                <g id="Group-13" transform="translate(316.000000, 8.000000)">
                    <g id="refresh" transform="translate(6.000000, 0.000000)">
                        <path d="M9.80663344,1.26367347 L10.3672614,1.1877551 C10.6181876,1.15346939 10.7967747,0.906122449 10.767387,0.631836735 C10.7379992,0.379591837 10.5481091,0.173877551 10.2542316,0.198367347 L8.56782653,0.426122449 C8.31690032,0.460408163 8.13831319,0.707755102 8.16770095,0.979591837 L8.37567583,2.83102041 C8.40732418,3.10285714 8.63564443,3.29877551 8.88657065,3.2644898 C9.13749686,3.23020408 9.31834459,2.98285714 9.28669624,2.70857143 L9.20983595,2.02040816 C10.7945141,3.29387755 11.4523477,5.50285714 10.8442473,7.5477551 C10.2361468,9.59265306 8.45027551,10.9959184 6.47677473,11.0008163 C6.18515777,11.0008163 5.99978886,11.2114286 5.99300707,11.4857143 C5.98848587,11.76 6.1693336,11.995102 6.47677473,11.995102 C8.84587991,11.995102 10.991186,10.3077551 11.7190981,7.85142857 C12.442489,5.4244898 11.6738862,2.79673469 9.80663344,1.26367347 L9.80663344,1.26367347 L9.80663344,1.26367347 Z" id="Path"></path>
                        <path d="M3.61017268,9.16653061 C3.57852433,8.89469388 3.35020408,8.69877551 3.09927786,8.73306122 C2.84835165,8.76734694 2.66750392,9.01469388 2.69915228,9.28897959 L2.77601256,9.97714286 C1.19133438,8.70367347 0.533500785,6.49469388 1.14160126,4.44979592 C1.74970173,2.40489796 3.535573,1.00163265 5.50907378,0.996734694 C5.80069074,0.996734694 5.98605965,0.786122449 5.99284144,0.511836735 C5.99736264,0.23755102 5.81651491,0.00244631731 5.50907378,0.00244631731 C3.1422292,4.28572108e-14 0.996923077,1.68734694 0.269010989,4.14367347 C-0.454379906,6.5755102 0.31422292,9.20326531 2.18147567,10.7363265 L1.62084772,10.8122449 C1.36992151,10.8465306 1.19133438,11.0938776 1.22072214,11.3681633 C1.25010989,11.6204082 1.44,11.8261224 1.73387755,11.8016327 L3.42028257,11.5738776 C3.67120879,11.5395918 3.84979592,11.2922449 3.82040816,11.0204082 L3.61017268,9.16653061 L3.61017268,9.16653061 Z" id="Path"></path>
                    </g>
                </g>
            </g>
        </g>
    </g>
</svg>