<?xml version="1.0" encoding="UTF-8"?>
<svg width="17px" height="18px" viewBox="0 0 17 18" version="1.1" xmlns="http://www.w3.org/2000/svg" xmlns:xlink="http://www.w3.org/1999/xlink">
    <title>82108D78-1D0D-40F8-9B53-89B5A756387A</title>
    <g id="Page-1" stroke="none" stroke-width="1" fill="none" fill-rule="evenodd">
        <g id="1.-Price-Action" transform="translate(-559.000000, -99.000000)" fill="#282B33" fill-rule="nonzero">
            <g id="Group-2" transform="translate(4.000000, 90.000000)">
                <g id="Group-9-Copy-7" transform="translate(445.000000, 0.000000)">
                    <path d="M126.741526,25.395148 L122.550735,20.9395429 C123.628261,19.6301303 124.218644,17.9826212 124.218644,16.2674929 C124.218644,12.2602605 121.02934,9 117.109322,9 C113.189304,9 110,12.2602605 110,16.2674929 C110,20.2747253 113.189304,23.5349858 117.109322,23.5349858 C118.580952,23.5349858 119.983343,23.0812414 121.182345,22.2198855 L125.404974,26.7093003 C125.58147,26.8966752 125.81886,27 126.07325,27 C126.31404,27 126.542465,26.9061545 126.715871,26.7355265 C127.084319,26.3730997 127.096065,25.7721097 126.741526,25.395148 Z M117.109322,10.8958677 C120.006834,10.8958677 122.364038,13.3055156 122.364038,16.2674929 C122.364038,19.2294702 120.006834,21.6391181 117.109322,21.6391181 C114.21181,21.6391181 111.854606,19.2294702 111.854606,16.2674929 C111.854606,13.3055156 114.21181,10.8958677 117.109322,10.8958677 Z" id="Shape-Copy"></path>
                </g>
            </g>
        </g>
    </g>
</svg>