<?xml version="1.0" encoding="UTF-8"?>
<svg width="12px" height="12px" viewBox="0 0 12 12" version="1.1" xmlns="http://www.w3.org/2000/svg" xmlns:xlink="http://www.w3.org/1999/xlink">
    <title>34A3CD79-E295-47EB-8BFC-58570C72A09C</title>
    <g id="Page-1" stroke="none" stroke-width="1" fill="none" fill-rule="evenodd">
        <g id="1.-Price-Action" transform="translate(-564.000000, -144.000000)" fill="#B1B2B3" fill-rule="nonzero">
            <g id="Group-Copy-2" transform="translate(0.000000, 130.000000)">
                <g id="Group-3" transform="translate(56.000000, 13.000000)">
                    <g id="001-sort" transform="translate(508.000000, 1.000000)">
                        <path d="M3.16941451,10.5368829 L3.16941451,0 L2.31226739,0 L2.31226739,10.5368829 L0.619422729,8.8440382 L0.0133929239,9.450068 L2.43782605,11.8745011 C2.6052376,12.0418081 2.8764443,12.0418081 3.04385585,11.8745011 L5.46828898,9.450068 L4.86225917,8.8440382 L3.16941451,10.5368829 Z" id="Path-Copy-2"></path>
                        <path d="M11.4683189,2.54999179 L9.04388575,0.125558661 C8.8764742,-0.0417482616 8.60526749,-0.0417482616 8.43785594,0.125558661 L6.01342282,2.54999179 L6.61945262,3.15602159 L8.31229728,1.46317693 L8.31229728,12.0000598 L9.16944441,12.0000598 L9.16944441,1.46317693 L10.8622891,3.15602159 L11.4683189,2.54999179 Z" id="Path-Copy-5"></path>
                    </g>
                </g>
            </g>
        </g>
    </g>
</svg>