<?xml version="1.0" encoding="UTF-8"?>
<svg width="12px" height="12px" viewBox="0 0 12 12" version="1.1" xmlns="http://www.w3.org/2000/svg" xmlns:xlink="http://www.w3.org/1999/xlink">
    <title>E4BEFEB5-0BF2-40AD-A226-18C8B2075115</title>
    <g id="HTML" stroke="none" stroke-width="1" fill="none" fill-rule="evenodd">
        <g id="1.2-Signals-popup" transform="translate(-997.000000, -240.000000)" fill="#6D7278" fill-rule="nonzero">
            <g id="Group-4-Copy-7" transform="translate(131.000000, 114.000000)">
                <g id="Group-4-Copy-15" transform="translate(657.000000, 34.000000)">
                    <g id="Group-4-Copy-4" transform="translate(209.000000, 91.000000)">
                        <g id="Stop-loss" transform="translate(0.000000, 1.000000)">
                            <path d="M6,0 C2.69165625,0 0,2.69165625 0,6 C0,9.30834375 2.69165625,12 6,12 C9.30834375,12 12,9.30834375 12,6 C12,2.69165625 9.30834375,0 6,0 Z M6,10.5 C3.51878906,10.5 1.5,8.48121094 1.5,6 C1.5,5.05298437 1.78710938,4.15771875 2.33301563,3.39379687 L8.60620313,9.66698438 C7.84228125,10.2128906 6.94701563,10.5 6,10.5 Z M9.66698438,8.60620313 L3.39379687,2.33301563 C4.15771875,1.78710938 5.05298437,1.5 6,1.5 C8.48121094,1.5 10.5,3.51878906 10.5,6 C10.5,6.94701563 10.2128906,7.84228125 9.66698438,8.60620313 Z" id="Shape"></path>
                        </g>
                    </g>
                </g>
            </g>
        </g>
    </g>
</svg>