<?xml version="1.0" encoding="UTF-8"?>
<svg width="11px" height="12px" viewBox="0 0 11 12" version="1.1" xmlns="http://www.w3.org/2000/svg" xmlns:xlink="http://www.w3.org/1999/xlink">
    <title>4236AD08-856E-4F9C-AD70-A14311AF2784</title>
    <g id="Page-1" stroke="none" stroke-width="1" fill="none" fill-rule="evenodd">
        <g id="1.-Price-Action" transform="translate(0.000000, -143.000000)" fill="#454545">
            <g id="Group-Copy-2" transform="translate(0.000000, 130.000000)">
                <path d="M0.6,13 L10.0507146,13 C10.3820854,13 10.6507146,13.2686292 10.6507146,13.6 C10.6507146,13.6890621 10.6308874,13.7770071 10.5926719,13.8574535 L8.04543828,19.219554 C7.96188418,19.3954411 7.9688821,19.6009377 8.06420797,19.7707332 L10.4982485,24.1062743 C10.6604687,24.3952228 10.5577351,24.7609674 10.2687866,24.9231876 C10.1790821,24.9735491 10.0779354,25 9.97506088,25 L0.6,25 C0.26862915,25 5.95692737e-16,24.7313708 0,24.4 L0,13.6 C-4.05812251e-17,13.2686292 0.26862915,13 0.6,13 Z" id="Rectangle-Copy"></path>
            </g>
        </g>
    </g>
</svg>