<?xml version="1.0" encoding="UTF-8"?>
<svg width="64px" height="64px" viewBox="0 0 64 64" version="1.1" xmlns="http://www.w3.org/2000/svg" xmlns:xlink="http://www.w3.org/1999/xlink">
    <title>1ACCA506-428D-4C5A-BADA-91A717C7F569</title>
    <g id="HTML" stroke="none" stroke-width="1" fill="none" fill-rule="evenodd" opacity="0.052502">
        <g id="1.2-Signals-popup" transform="translate(-993.000000, -155.000000)" fill="#FFFFFF" fill-rule="nonzero">
            <g id="Group-4-Copy-7" transform="translate(131.000000, 114.000000)">
                <g id="Group-4-Copy-15" transform="translate(657.000000, 34.000000)">
                    <g id="target" transform="translate(205.000000, 7.000000)">
                        <path d="M49.28,23.2 L45.3866667,27.0933333 C47.04,30.1333333 48,33.6266667 48,37.3333333 C48,49.0933333 38.4266667,58.6666667 26.6666667,58.6666667 C14.9066667,58.6666667 5.33333333,49.0933333 5.33333333,37.3333333 C5.33333333,25.5733333 14.9066667,16 26.6666667,16 C30.3733333,16 33.8666667,16.96 36.9066667,18.6133333 L40.8,14.72 C36.72,12.16 31.8666667,10.6666667 26.6666667,10.6666667 C11.9733333,10.6666667 0,22.64 0,37.3333333 C0,52.0266667 11.9733333,64 26.6666667,64 C41.36,64 53.3333333,52.0266667 53.3333333,37.3333333 C53.3333333,32.1333333 51.84,27.28 49.28,23.2 Z" id="Path"></path>
                        <path d="M42.4,30.08 L38.24,34.24 C38.5333333,35.2266667 38.6666667,36.2666667 38.6666667,37.3333333 C38.6666667,43.9466667 33.28,49.3333333 26.6666667,49.3333333 C20.0533333,49.3333333 14.6666667,43.9466667 14.6666667,37.3333333 C14.6666667,30.72 20.0533333,25.3333333 26.6666667,25.3333333 C27.7333333,25.3333333 28.7733333,25.4666667 29.76,25.76 L33.92,21.6 C31.7066667,20.56 29.2533333,20 26.6666667,20 C17.12,20 9.33333333,27.7866667 9.33333333,37.3333333 C9.33333333,46.88 17.12,54.6666667 26.6666667,54.6666667 C36.2133333,54.6666667 44,46.88 44,37.3333333 C44,34.7466667 43.44,32.2933333 42.4,30.08 Z" id="Path"></path>
                        <path d="M26.6666667,45.3333333 C22.256,45.3333333 18.6666667,41.744 18.6666667,37.3333333 C18.6666667,32.9226667 22.256,29.3333333 26.6666667,29.3333333 C31.0773333,29.3333333 34.6666667,32.9226667 34.6666667,37.3333333 C34.6666667,41.744 31.0773333,45.3333333 26.6666667,45.3333333 Z M26.6666667,34.6666667 C25.1973333,34.6666667 24,35.864 24,37.3333333 C24,38.8026667 25.1973333,40 26.6666667,40 C28.136,40 29.3333333,38.8026667 29.3333333,37.3333333 C29.3333333,35.864 28.136,34.6666667 26.6666667,34.6666667 Z" id="Shape"></path>
                        <path d="M26.6666667,39.3333333 C26.1546667,39.3333333 25.6426667,39.1386667 25.2533333,38.7466667 C24.472,37.9653333 24.472,36.6986667 25.2533333,35.9173333 L45.2533333,15.9173333 C46.0346667,15.136 47.3013333,15.136 48.0826667,15.9173333 C48.864,16.6986667 48.864,17.9653333 48.0826667,18.7466667 L28.0826667,38.7466667 C27.6906667,39.1386667 27.1786667,39.3333333 26.6666667,39.3333333 Z" id="Path"></path>
                        <path d="M54,18.6666667 L47.3333333,18.6666667 C46.2293333,18.6666667 45.3333333,17.7706667 45.3333333,16.6666667 L45.3333333,10 C45.3333333,9.46933333 45.544,8.96 45.92,8.58666667 L53.92,0.586666667 C54.4933333,0.0133333333 55.3546667,-0.154666667 56.0986667,0.152 C56.8453333,0.461333333 57.3333333,1.192 57.3333333,2 L57.3333333,6.66666667 L62,6.66666667 C62.808,6.66666667 63.5386667,7.15466667 63.848,7.90133333 C64.1573333,8.648 63.9866667,9.50933333 63.4133333,10.08 L55.4133333,18.08 C55.04,18.456 54.5306667,18.6666667 54,18.6666667 Z" id="Path"></path>
                    </g>
                </g>
            </g>
        </g>
    </g>
</svg>