<?xml version="1.0" encoding="UTF-8"?>
<svg width="12px" height="12px" viewBox="0 0 12 12" version="1.1" xmlns="http://www.w3.org/2000/svg" xmlns:xlink="http://www.w3.org/1999/xlink">
    <title>36DA637E-D96B-49D9-971D-71B341C4CF72@1.5x</title>
    <g id="HTML" stroke="none" stroke-width="1" fill="none" fill-rule="evenodd">
        <g id="1.2-Signals-popup" transform="translate(-814.000000, -465.000000)" fill="#6D7278" fill-rule="nonzero">
            <g id="Group-4-Copy-7" transform="translate(131.000000, 114.000000)">
                <g id="Group-4-Copy-15" transform="translate(657.000000, 34.000000)">
                    <g id="Group-5-Copy-6" transform="translate(26.000000, 317.000000)">
                        <g id="24-hours">
                            <path d="M11.5719375,7.06054688 L10.6358906,7.06054688 L8.93020312,10.0331484 L10.861125,10.0331484 L10.8585703,11.0244844 L11.5616953,11.0262891 L11.56425,10.033125 L12,10.033125 L12,9.33 L11.5661016,9.33 L11.5719375,7.06054688 Z M10.8629766,9.33002344 L10.1443359,9.33002344 L10.8662109,8.07196875 L10.8629766,9.33002344 Z" id="Shape"></path>
                            <path d="M8.62361719,9.25415625 C8.85946875,8.90524219 9.020625,8.5974375 9.0421875,8.23640625 C9.0421875,7.59234375 8.51819531,7.06832812 7.87410937,7.06832812 C7.31721094,7.06832812 6.83517187,7.46451562 6.72794531,8.010375 L6.6601875,8.35535156 L7.35014062,8.49086719 L7.41789844,8.14589062 C7.46050781,7.92892969 7.65239062,7.77142969 7.87410937,7.77142969 C8.12402344,7.77142969 8.32851562,7.96961719 8.33866406,8.21709375 C8.32005469,8.41204687 8.21029687,8.6079375 8.04757031,8.85096094 C7.15413281,10.1093906 7.04160937,10.1964609 6.84290625,10.4139609 L6.84070312,11.0114063 L9.17634375,11.0185547 L9.1785,10.3154297 L7.84996875,10.311375 C8.03627344,10.0713984 8.29139062,9.72885938 8.62361719,9.25415625 L8.62361719,9.25415625 Z" id="Path"></path>
                            <path d="M5.6484375,9.86899219 C3.78625781,9.70122656 2.29903125,8.21371875 2.13121875,6.3515625 L2.84765625,6.3515625 L2.84765625,5.6484375 L2.1313125,5.6484375 C2.29914844,3.78635156 3.78635156,2.29914844 5.6484375,2.1313125 L5.6484375,2.84765625 L6.3515625,2.84765625 L6.3515625,2.13121875 C8.21371875,2.29903125 9.70122656,3.78625781 9.86899219,5.6484375 L9.15234375,5.6484375 L9.15234375,6.3515625 L10.5878906,6.3515625 L10.5878906,6 C10.5878906,3.47022656 8.52977344,1.41210938 6,1.41210938 C3.47022656,1.41210938 1.41210938,3.47022656 1.41210938,6 C1.41210938,8.52977344 3.47022656,10.5878906 6,10.5878906 L6.3515625,10.5878906 L6.3515625,9.15234375 L5.6484375,9.15234375 L5.6484375,9.86899219 Z" id="Path"></path>
                            <path d="M4.83257812,7.66457813 L5.54334375,6.9538125 C5.68164844,7.02030469 5.83654687,7.05759375 6,7.05759375 C6.58317187,7.05759375 7.05761719,6.58314844 7.05761719,5.99997656 C7.05761719,5.54003906 6.76239844,5.14792969 6.3515625,5.00266406 L6.3515625,3.8818125 L5.6484375,3.8818125 L5.6484375,5.00266406 C5.23760156,5.14792969 4.94238281,5.54003906 4.94238281,5.99997656 C4.94238281,6.16342969 4.97969531,6.31830469 5.04616406,6.45663281 L4.33539844,7.16739844 L4.83257812,7.66457813 Z M6,5.64550781 C6.19546875,5.64550781 6.35449219,5.80453125 6.35449219,6 C6.35449219,6.19546875 6.19546875,6.35449219 6,6.35449219 C5.80453125,6.35449219 5.64550781,6.19546875 5.64550781,6 C5.64550781,5.80453125 5.80453125,5.64550781 6,5.64550781 Z" id="Shape"></path>
                            <path d="M6.3515625,12 L6,12 C4.39734375,12 2.89059375,11.3759062 1.75734375,10.2426562 C0.62409375,9.10940625 0,7.60265625 0,6 C0,4.39734375 0.62409375,2.89059375 1.75734375,1.75734375 C2.89059375,0.62409375 4.39734375,-1.33226763e-15 6,-1.33226763e-15 C7.60265625,-1.33226763e-15 9.10940625,0.62409375 10.2426562,1.75734375 C11.3759062,2.89059375 12,4.39734375 12,6 L12,6.3515625 L11.296875,6.3515625 L11.296875,6 C11.296875,4.58514844 10.7459063,3.255 9.74545312,2.25454687 C8.745,1.25409375 7.41485156,0.703125 6,0.703125 C4.58514844,0.703125 3.255,1.25409375 2.25454687,2.25454687 C1.25409375,3.255 0.703125,4.58514844 0.703125,6 C0.703125,7.41485156 1.25409375,8.745 2.25454687,9.74545313 C3.255,10.7459063 4.58514844,11.296875 6,11.296875 L6.3515625,11.296875 L6.3515625,12 Z" id="Path"></path>
                        </g>
                    </g>
                </g>
            </g>
        </g>
    </g>
</svg>